<svg xmlns="http://www.w3.org/2000/svg" viewBox="0 0 1771.8700000000001 706" width="1771.8700000000001" height="706" style="--bg:#FFFFFF;--fg:#27272A;background:var(--bg)">
<style>
  @import url('https://fonts.googleapis.com/css2?family=Inter:wght@400;500;600;700&amp;display=swap');
  text { font-family: 'Inter', system-ui, sans-serif; }
  svg {
    /* Derived from --bg and --fg (overridable via --line, --accent, etc.) */
    --_text:          var(--fg);
    --_text-sec:      var(--muted, color-mix(in srgb, var(--fg) 60%, var(--bg)));
    --_text-muted:    var(--muted, color-mix(in srgb, var(--fg) 40%, var(--bg)));
    --_text-faint:    color-mix(in srgb, var(--fg) 25%, var(--bg));
    --_line:          var(--line, color-mix(in srgb, var(--fg) 30%, var(--bg)));
    --_arrow:         var(--accent, color-mix(in srgb, var(--fg) 50%, var(--bg)));
    --_node-fill:     var(--surface, color-mix(in srgb, var(--fg) 3%, var(--bg)));
    --_node-stroke:   var(--border, color-mix(in srgb, var(--fg) 20%, var(--bg)));
    --_group-fill:    var(--bg);
    --_group-hdr:     color-mix(in srgb, var(--fg) 5%, var(--bg));
    --_inner-stroke:  color-mix(in srgb, var(--fg) 12%, var(--bg));
    --_key-badge:     color-mix(in srgb, var(--fg) 10%, var(--bg));
  }
</style>
<defs>
  <marker id="arrowhead" markerWidth="8" markerHeight="4.8" refX="8" refY="2.4" orient="auto">
    <polygon points="0 0, 8 2.4, 0 4.8" fill="var(--_arrow)" />
  </marker>
  <marker id="arrowhead-start" markerWidth="8" markerHeight="4.8" refX="0" refY="2.4" orient="auto-start-reverse">
    <polygon points="8 0, 0 2.4, 8 4.8" fill="var(--_arrow)" />
  </marker>
</defs>
<rect x="637.5800000000002" y="62" width="429.5000000000001" height="176" rx="0" ry="0" fill="var(--_group-fill)" stroke="var(--_node-stroke)" stroke-width="1" />
<rect x="637.5800000000002" y="62" width="429.5000000000001" height="28" rx="0" ry="0" fill="var(--_group-hdr)" stroke="var(--_node-stroke)" stroke-width="1" />
<text x="649.5800000000002" y="76" dy="0.35em" font-size="12" font-weight="600" fill="var(--_text-sec)">&quot;Clients&quot;</text>
<rect x="40" y="222" width="1691.8700000000001" height="244" rx="0" ry="0" fill="var(--_group-fill)" stroke="var(--_node-stroke)" stroke-width="1" />
<rect x="40" y="222" width="1691.8700000000001" height="28" rx="0" ry="0" fill="var(--_group-hdr)" stroke="var(--_node-stroke)" stroke-width="1" />
<text x="52" y="236" dy="0.35em" font-size="12" font-weight="600" fill="var(--_text-sec)">&quot;Hub (vtr hub)&quot;</text>
<rect x="40" y="450" width="343.70000000000005" height="116" rx="0" ry="0" fill="var(--_group-fill)" stroke="var(--_node-stroke)" stroke-width="1" />
<rect x="40" y="450" width="343.70000000000005" height="28" rx="0" ry="0" fill="var(--_group-hdr)" stroke="var(--_node-stroke)" stroke-width="1" />
<text x="52" y="464" dy="0.35em" font-size="12" font-weight="600" fill="var(--_text-sec)">&quot;Local coordinator (optional)&quot;</text>
<rect x="40" y="550" width="1027.0800000000002" height="116" rx="0" ry="0" fill="var(--_group-fill)" stroke="var(--_node-stroke)" stroke-width="1" />
<rect x="40" y="550" width="1027.0800000000002" height="28" rx="0" ry="0" fill="var(--_group-hdr)" stroke="var(--_node-stroke)" stroke-width="1" />
<text x="52" y="564" dy="0.35em" font-size="12" font-weight="600" fill="var(--_text-sec)">&quot;Spokes&quot;</text>
<polyline points="1047.0800000000002,58 1067.0800000000002,58 1067.0800000000002,352 1534.9950000000001,352 1534.9950000000001,350" fill="none" stroke="var(--_line)" stroke-width="0.75" />
<polyline points="936.2550000000001,198 1087.0800000000002,198 1087.0800000000002,332 1358.1200000000001,332" fill="none" stroke="var(--_line)" stroke-width="0.75" marker-end="url(#arrowhead)" />
<polyline points="936.2550000000001,138 1087.0800000000002,138 1087.0800000000002,286.5 1534.9950000000001,286.5 1534.9950000000001,314" fill="none" stroke="var(--_line)" stroke-width="0.75" marker-end="url(#arrowhead)" />
<polyline points="1358.1200000000001,332 1338.1200000000001,332 1338.1200000000001,372 211.85000000000002,372 211.85000000000002,388.25" fill="none" stroke="var(--_line)" stroke-width="0.75" stroke-dasharray="4 4" marker-end="url(#arrowhead)" />
<polyline points="360.125,406.25 383.70000000000005,406.25 383.70000000000005,437.5 852.33,437.5 852.33,216" fill="none" stroke="var(--_line)" stroke-width="0.75" stroke-dasharray="4 4" marker-end="url(#arrowhead)" />
<polyline points="360.125,406.25 852.33,406.25 852.33,156" fill="none" stroke="var(--_line)" stroke-width="0.75" stroke-dasharray="4 4" marker-end="url(#arrowhead)" />
<polyline points="363.70000000000005,626 721.9300000000001,626" fill="none" stroke="var(--_line)" stroke-width="0.75" marker-end="url(#arrowhead)" />
<rect x="1103.0800000000002" y="310" width="199.04000000000002" height="27" rx="4" ry="4" fill="var(--bg)" stroke="var(--_inner-stroke)" stroke-width="0.5" />
<text x="1202.6000000000001" y="323.5" text-anchor="middle" dy="0.35em" font-size="11" font-weight="400" fill="var(--_text-muted)">&quot;gRPC: Spawn / Send / Subscribe&quot;</text>
<rect x="1117.38" y="273" width="170.44" height="27" rx="4" ry="4" fill="var(--bg)" stroke="var(--_inner-stroke)" stroke-width="0.5" />
<text x="1202.6000000000001" y="286.5" text-anchor="middle" dy="0.35em" font-size="11" font-weight="400" fill="var(--_text-muted)">&quot;WS Any: Subscribe + input&quot;</text>
<rect x="789.99" y="358.5" width="124.68" height="27" rx="4" ry="4" fill="var(--bg)" stroke="var(--_inner-stroke)" stroke-width="0.5" />
<text x="852.33" y="372" text-anchor="middle" dy="0.35em" font-size="11" font-weight="400" fill="var(--_text-muted)">&quot;SubscribeSessions&quot;</text>
<rect x="451.16" y="424" width="118.96000000000001" height="27" rx="4" ry="4" fill="var(--bg)" stroke="var(--_inner-stroke)" stroke-width="0.5" />
<text x="510.64000000000004" y="437.5" text-anchor="middle" dy="0.35em" font-size="11" font-weight="400" fill="var(--_text-muted)">&quot;SessionsSnapshot&quot;</text>
<rect x="451.16" y="387" width="118.96000000000001" height="27" rx="4" ry="4" fill="var(--bg)" stroke="var(--_inner-stroke)" stroke-width="0.5" />
<text x="510.64000000000004" y="400.5" text-anchor="middle" dy="0.35em" font-size="11" font-weight="400" fill="var(--_text-muted)">&quot;SessionsSnapshot&quot;</text>
<rect x="419.70000000000005" y="612.5" width="181.88" height="27" rx="4" ry="4" fill="var(--bg)" stroke="var(--_inner-stroke)" stroke-width="0.5" />
<text x="510.64000000000004" y="626" text-anchor="middle" dy="0.35em" font-size="11" font-weight="400" fill="var(--_text-muted)">&quot;screen updates + raw output&quot;</text>
<rect x="657.58" y="40" width="389.50000000000006" height="36" rx="0" ry="0" fill="#f8f9fa" stroke="#adb5bd" stroke-width="0.75" />
<rect x="768.405" y="180" width="167.85000000000002" height="36" rx="0" ry="0" fill="#fff7ed" stroke="#f59f00" stroke-width="0.75" />
<rect x="768.405" y="120" width="167.85000000000002" height="36" rx="0" ry="0" fill="#fff7ed" stroke="#f59f00" stroke-width="0.75" />
<rect x="1358.1200000000001" y="314" width="353.75" height="36" rx="0" ry="0" fill="#e7f5ff" stroke="#1f5e99" stroke-width="0.75" />
<rect x="63.57500000000002" y="388.25" width="296.55" height="36" rx="0" ry="0" fill="#f1f3f5" stroke="#868e96" stroke-width="0.75" />
<rect x="81.45000000000002" y="508" width="260.8" height="36" rx="0" ry="0" fill="#fff4e6" stroke="#f08c00" stroke-width="0.75" />
<rect x="721.9300000000001" y="608" width="260.8" height="36" rx="0" ry="0" fill="#f3f0ff" stroke="#6f42c1" stroke-width="0.75" />
<rect x="60" y="608" width="303.70000000000005" height="36" rx="0" ry="0" fill="#fff4e6" stroke="#f08c00" stroke-width="0.75" />
<text x="852.33" y="58" text-anchor="middle" dy="0.35em" font-size="13" font-weight="500" fill="#343a40">&quot;proto/vtr.proto\nContract for gRPC + WS + Tunnel&quot;</text>
<text x="852.3299999999999" y="198" text-anchor="middle" dy="0.35em" font-size="13" font-weight="500" fill="#5c3d00;">&quot;CLI / TUI / Agent&quot;</text>
<text x="852.3299999999999" y="138" text-anchor="middle" dy="0.35em" font-size="13" font-weight="500" fill="#5c3d00;">&quot;Web UI (browsers)&quot;</text>
<text x="1534.9950000000001" y="332" text-anchor="middle" dy="0.35em" font-size="13" font-weight="500" fill="#0b1f3a;">&quot;Federated API\n(gRPC + WS bridge + routing)&quot;</text>
<text x="211.85000000000002" y="406.25" text-anchor="middle" dy="0.35em" font-size="13" font-weight="500" fill="#343a40">&quot;SessionsSnapshot\n(aggregated view)&quot;</text>
<text x="211.85000000000002" y="526" text-anchor="middle" dy="0.35em" font-size="13" font-weight="500" fill="#5c3d00;">&quot;Coordinator\n(PTY + VT engine)&quot;</text>
<text x="852.33" y="626" text-anchor="middle" dy="0.35em" font-size="13" font-weight="500" fill="#2d1b69;">&quot;Tunnel stream\n(bidirectional)&quot;</text>
<text x="211.85000000000002" y="626" text-anchor="middle" dy="0.35em" font-size="13" font-weight="500" fill="#5c3d00;">&quot;Spoke coordinator\n(PTY + VT engine)&quot;</text>
</svg>